<svg width="250" height="250" viewBox="0 0 250 250" fill="none" xmlns="http://www.w3.org/2000/svg">
<rect width="250" height="250" fill="#FF5A00"/>
<path d="M78.3118 97.4545V152H65.1282V97.4545H78.3118ZM128.6 117.217H115.283C115.106 115.849 114.742 114.615 114.191 113.515C113.641 112.414 112.913 111.473 112.007 110.691C111.102 109.91 110.027 109.315 108.785 108.907C107.559 108.481 106.201 108.268 104.71 108.268C102.064 108.268 99.7824 108.916 97.8648 110.212C95.9649 111.508 94.5001 113.381 93.4703 115.832C92.4582 118.282 91.9521 121.247 91.9521 124.727C91.9521 128.349 92.4671 131.386 93.4969 133.836C94.5445 136.268 96.0093 138.106 97.8914 139.349C99.7913 140.574 102.037 141.187 104.63 141.187C106.086 141.187 107.408 141 108.598 140.627C109.805 140.255 110.862 139.713 111.767 139.003C112.691 138.275 113.445 137.396 114.031 136.366C114.635 135.319 115.052 134.138 115.283 132.824L128.6 132.904C128.369 135.319 127.668 137.698 126.496 140.042C125.342 142.385 123.753 144.525 121.728 146.46C119.704 148.378 117.236 149.905 114.324 151.041C111.43 152.178 108.11 152.746 104.363 152.746C99.4273 152.746 95.0061 151.663 91.0999 149.496C87.2114 147.312 84.1396 144.134 81.8847 139.962C79.6297 135.789 78.5022 130.711 78.5022 124.727C78.5022 118.726 79.6475 113.639 81.9379 109.466C84.2284 105.294 87.3268 102.124 91.233 99.9581C95.1393 97.7919 99.5161 96.7088 104.363 96.7088C107.666 96.7088 110.72 97.1705 113.525 98.0938C116.331 98.9993 118.799 100.331 120.929 102.089C123.06 103.829 124.791 105.968 126.123 108.507C127.455 111.047 128.28 113.95 128.6 117.217ZM128.644 152V97.4545H151.176C155.26 97.4545 158.784 98.1914 161.749 99.6651C164.732 101.121 167.032 103.216 168.647 105.951C170.263 108.667 171.071 111.89 171.071 115.619C171.071 119.401 170.245 122.614 168.594 125.26C166.943 127.888 164.599 129.894 161.563 131.279C158.527 132.646 154.931 133.33 150.776 133.33H136.527V122.943H148.326C150.315 122.943 151.975 122.685 153.306 122.17C154.656 121.638 155.677 120.839 156.369 119.773C157.062 118.69 157.408 117.305 157.408 115.619C157.408 113.932 157.062 112.538 156.369 111.437C155.677 110.319 154.656 109.484 153.306 108.934C151.957 108.365 150.297 108.081 148.326 108.081H141.827V152H128.644ZM159.352 127.071L172.935 152H158.553L145.237 127.071H159.352Z" fill="white"/>
</svg>
